# xmcd
#
# Track frame offsets: 
#        150
#        5820
#        27053
#        49038
#        63575
#        74058
#        90988
#        103865
#        117980
#        130333
#        134128
#        153953
#
# Disc length: 2311 seconds
#
# Revision: 7
# Processed by: cddbd v1.5.2PL0 Copyright (c) Steve Scherf et al.
# Submitted via: ExactAudioCopy v0.99pb4
#
DISCID=ac09050c
DTITLE=Steve Miller Band - Fly Like an Eagle [DCC GZS-1033]
DYEAR=1976
DGENRE=Rock
TTITLE0=Space Intro
TTITLE1=Fly Like an Eagle
TTITLE2=Wild Mountain Honey
TTITLE3=Serenade
TTITLE4=Dance, Dance, Dance
TTITLE5=Mercury Blues
TTITLE6=Take The Money and Run
TTITLE7=Rock'n Me
TTITLE8=You Send Me
TTITLE9=Blue Odyssey
TTITLE10=Sweet Maree
TTITLE11=The Window
EXTD=
EXTT0=
EXTT1=
EXTT2=
EXTT3=
EXTT4=
EXTT5=
EXTT6=
EXTT7=
EXTT8=
EXTT9=
EXTT10=
EXTT11=
PLAYORDER=
